<?xml version="1.0" standalone="no"?>
<!DOCTYPE svg PUBLIC "-//W3C//DTD SVG 20010904//EN"
 "http://www.w3.org/TR/2001/REC-SVG-20010904/DTD/svg10.dtd">
<svg version="1.0" xmlns="http://www.w3.org/2000/svg"
 width="642.000000pt" height="642.000000pt" viewBox="0 0 642.000000 642.000000"
 preserveAspectRatio="xMidYMid meet">

<g transform="translate(0.000000,642.000000) scale(0.100000,-0.100000)"
fill="#000000" stroke="none">
<path d="M1717 6102 c-9 -10 -17 -22 -17 -27 0 -15 304 -585 312 -585 4 0 8 6
8 13 0 13 -52 139 -98 237 -12 25 -35 77 -52 115 -90 202 -117 259 -126 262
-6 2 -18 -5 -27 -15z"/>
<path d="M1861 6046 c-15 -17 -2 -56 80 -245 28 -64 57 -134 65 -157 22 -66
45 -117 50 -112 2 3 -16 61 -40 129 -24 68 -65 185 -91 259 -26 74 -49 136
-50 138 -1 1 -8 -4 -14 -12z"/>
<path d="M4420 5882 c-277 -261 -307 -292 -289 -292 15 0 36 15 138 102 31 26
132 109 224 184 140 113 166 138 156 151 -33 39 -39 35 -229 -145z"/>
<path d="M3321 5970 c-52 -82 -162 -192 -215 -214 -57 -24 -123 -20 -183 10
-61 30 -155 111 -203 174 l-35 45 -11 -110 c-13 -129 -26 -180 -57 -226 -20
-30 -28 -34 -74 -37 -70 -4 -167 42 -258 123 -16 14 -38 31 -49 37 -17 9 -18
7 -11 -28 12 -64 23 -205 17 -226 -2 -10 -17 -25 -33 -34 -30 -15 -64 -68 -56
-87 2 -7 1 -21 -4 -32 -5 -13 -8 -15 -8 -5 -2 26 -75 60 -129 60 -91 0 -132
-30 -132 -95 0 -21 -3 -23 -42 -18 -24 3 -60 9 -80 13 -29 6 -38 5 -38 -5 0
-18 -7 -21 -63 -29 l-48 -7 18 31 c58 102 63 116 63 172 0 53 -3 62 -37 100
-106 120 -165 158 -241 158 -63 0 -112 -21 -147 -62 -26 -31 -45 -30 -45 3 0
27 -49 97 -96 139 l-38 33 -150 -6 c-186 -6 -181 -2 -171 -137 5 -52 11 -151
14 -220 6 -116 8 -126 28 -135 12 -5 24 -19 28 -32 9 -38 36 -45 127 -33 45 5
104 10 131 10 26 0 58 7 71 15 23 15 26 14 95 -50 82 -75 102 -85 173 -85 58
0 108 21 146 61 36 39 42 36 27 -8 -7 -21 -15 -101 -19 -178 -9 -191 -24 -327
-37 -340 -12 -10 -7 105 7 218 6 43 5 47 -15 47 -12 0 -21 -6 -21 -15 0 -8 -4
-15 -10 -15 -5 0 -10 -8 -10 -17 0 -10 -9 -45 -20 -78 -18 -57 -19 -58 -21
-25 -1 25 -4 17 -9 -25 -8 -71 -6 -75 26 -75 45 0 25 -33 -30 -50 l-48 -16 33
-25 c19 -14 49 -32 67 -40 40 -17 57 -69 47 -143 -6 -49 -9 -53 -83 -112 -42
-34 -105 -80 -139 -102 -34 -23 -65 -47 -68 -52 -4 -6 -32 -29 -63 -52 -31
-23 -84 -65 -117 -93 l-60 -51 25 -21 26 -21 45 46 c25 26 76 72 114 102 69
55 127 105 250 215 37 33 72 63 78 66 10 6 123 -5 152 -14 5 -2 8 -28 7 -58
-1 -54 -1 -54 13 -24 8 17 14 41 15 55 0 17 9 30 28 41 l27 15 -3 -70 c-4 -66
-2 -73 23 -96 23 -21 38 -25 106 -29 61 -2 85 1 104 13 l25 16 0 -48 c0 -26 7
-57 15 -69 29 -41 149 -57 205 -28 39 20 45 46 66 310 9 121 18 221 18 222 1
0 31 4 67 8 l67 7 11 -49 c20 -96 52 -161 155 -315 125 -188 147 -241 154
-365 l4 -91 -120 -4 c-135 -3 -155 -12 -201 -81 -21 -32 -30 -37 -65 -38 -23
0 -50 -4 -61 -8 -13 -5 -34 0 -64 16 -42 22 -53 23 -248 23 -224 0 -206 -5
-188 57 10 36 -13 99 -46 127 -45 38 -120 57 -244 60 -60 2 -87 2 -60 0 90 -7
228 -35 266 -55 21 -10 45 -29 53 -41 18 -25 21 -84 6 -122 l-10 -26 -406 0
c-456 0 -446 1 -509 -73 l-35 -41 0 -140 c0 -116 4 -148 19 -182 21 -46 59
-80 100 -89 25 -5 29 -12 34 -50 6 -54 42 -106 90 -129 30 -14 80 -16 361 -16
l326 0 0 -100 0 -100 -441 0 -442 0 -48 -49 -49 -48 0 -153 0 -153 44 -43 c24
-23 58 -45 75 -49 29 -6 31 -10 31 -49 0 -32 7 -50 32 -80 50 -61 72 -66 293
-66 l195 0 0 -40 c0 -33 7 -47 39 -79 25 -25 53 -42 75 -47 l36 -6 0 -108 c0
-103 1 -110 27 -142 15 -18 31 -35 34 -38 3 -3 9 -27 14 -55 4 -27 14 -58 22
-67 13 -15 11 -19 -24 -41 -22 -14 -52 -39 -66 -57 -26 -31 -27 -35 -27 -160
l0 -129 30 -34 30 -35 0 -179 c0 -238 10 -266 139 -375 17 -14 31 -35 31 -47
0 -11 25 -47 55 -80 88 -94 63 -91 665 -91 449 0 523 2 564 16 26 9 53 25 59
35 16 25 57 25 64 0 3 -11 20 -27 38 -35 29 -14 117 -16 715 -16 759 0 724 -3
778 68 26 34 27 42 30 168 4 151 -6 186 -64 231 -40 30 -41 36 -14 70 18 23
20 41 20 162 0 129 -1 138 -25 173 -23 34 -25 46 -25 156 0 88 4 123 15 138
11 15 14 53 15 166 l0 147 -31 35 c-17 19 -48 43 -70 52 -29 13 -39 24 -39 41
0 22 4 23 65 23 65 0 65 0 119 52 43 42 55 62 61 96 l7 42 99 0 c95 0 99 -1
99 -22 0 -36 38 -101 77 -130 36 -28 36 -28 207 -28 l170 0 53 55 53 54 0 691
0 690 -53 55 c-33 34 -62 55 -75 55 -19 0 -22 6 -22 38 0 29 -9 50 -36 85 -54
69 -90 79 -260 75 -134 -3 -141 -4 -181 -31 l-42 -29 -33 18 c-29 17 -66 19
-308 24 l-275 5 -17 35 c-58 120 13 160 285 160 l160 0 -34 31 c-19 16 -56 47
-84 68 -27 21 -63 53 -79 70 l-30 31 62 0 c87 0 98 13 106 127 10 136 17 183
27 183 5 0 9 -4 9 -10 0 -5 9 -10 20 -10 11 0 20 7 20 15 0 10 10 15 30 15 19
0 30 5 30 14 0 15 20 25 53 27 16 1 13 4 -12 12 l-33 10 4 74 c2 40 0 73 -4
73 -5 0 -8 -26 -8 -58 0 -88 -13 -84 -26 9 -11 72 -28 109 -43 93 -3 -3 -8
-39 -12 -80 -4 -42 -10 -78 -13 -82 -14 -14 -17 13 -9 99 l8 93 60 12 c210 42
388 77 438 86 60 11 64 14 45 41 -12 15 -20 14 -103 -9 -186 -51 -322 -87
-379 -99 l-59 -13 7 60 c3 34 6 76 6 95 0 28 6 37 38 56 l37 22 -29 3 c-16 2
-45 15 -63 29 -27 21 -48 27 -109 31 -67 4 -79 2 -106 -18 l-30 -22 7 65 c8
69 -1 99 -37 127 -22 18 -30 4 77 125 47 53 50 55 56 33 4 -13 7 -44 8 -69 1
-52 18 -109 36 -124 6 -5 19 -25 29 -42 15 -30 20 -33 66 -33 40 0 52 4 69 26
17 22 19 35 14 90 l-6 64 31 0 c28 0 31 -3 34 -37 2 -30 8 -39 25 -41 13 -2
23 -11 25 -25 8 -54 117 -58 144 -5 12 24 13 42 4 105 -5 42 -9 78 -7 80 2 2
51 -8 108 -22 136 -33 169 -32 211 2 57 48 61 58 83 228 20 152 21 140 -25
200 -24 31 -55 64 -69 74 -24 17 -242 71 -284 71 -24 0 -43 -47 -66 -164 -11
-54 -22 -101 -25 -104 -3 -3 -15 7 -27 22 -19 24 -26 27 -63 21 -70 -11 -75
-15 -97 -66 -12 -27 -24 -49 -26 -49 -3 0 -25 21 -48 47 l-43 47 -56 -13 c-71
-16 -79 -29 -66 -118 5 -37 10 -82 10 -99 l0 -31 -125 -13 c-231 -24 -344 5
-411 103 -48 69 -57 113 -52 258 l4 125 -46 -30 c-130 -89 -218 -128 -300
-134 -62 -4 -74 -2 -115 22 -67 40 -130 149 -165 284 -6 23 -12 42 -13 42 -1
0 -22 -31 -46 -70z m108 -194 c37 -59 107 -113 160 -125 82 -17 189 19 323
110 32 22 59 39 61 39 3 0 6 -51 9 -112 6 -134 27 -193 91 -257 74 -72 205
-101 375 -84 45 5 82 8 82 6 0 -2 -22 -31 -50 -65 -27 -34 -50 -66 -50 -71 0
-5 -19 -8 -42 -7 -76 4 -98 0 -119 -21 l-22 -22 7 47 c9 57 -9 91 -59 112 -70
29 -183 11 -199 -32 -3 -9 -15 -123 -27 -253 -11 -130 -22 -241 -24 -247 -4
-14 -99 -25 -146 -18 -32 5 -38 12 -61 64 -18 41 -36 65 -59 79 -36 22 -98 27
-129 11 -15 -8 -21 -4 -37 28 -36 69 -100 96 -172 71 -29 -10 -34 -9 -75 29
-54 50 -95 59 -156 37 -50 -18 -48 -18 -110 -9 -40 5 -50 3 -78 -21 -22 -18
-37 -44 -48 -82 -10 -34 -20 -53 -28 -50 -6 3 -53 11 -103 18 -82 11 -95 11
-137 -5 -25 -10 -55 -29 -65 -42 l-20 -25 -63 17 c-35 9 -66 20 -70 23 -4 3 2
103 13 221 25 286 25 295 -6 324 -14 13 -41 27 -60 30 -33 6 -35 9 -35 45 0
21 -3 53 -7 72 l-6 33 34 -23 c123 -82 230 -110 288 -75 54 32 96 124 108 234
6 58 6 58 28 44 12 -8 42 -33 65 -56 60 -56 151 -98 216 -98 96 0 198 76 292
218 l35 52 27 -64 c15 -36 37 -81 49 -100z m1806 54 c104 -21 141 -40 163 -81
14 -27 11 -78 -8 -124 -7 -16 -12 -45 -11 -63 4 -56 -19 -130 -46 -152 -33
-26 -71 -25 -206 2 -70 14 -111 26 -114 36 -6 15 61 349 78 390 6 16 15 22 27
18 9 -3 62 -14 117 -26z m-4141 -25 c36 -24 60 -98 46 -145 -4 -15 -1 -36 8
-54 15 -30 11 -122 -8 -171 -12 -32 -57 -43 -202 -51 -98 -6 -118 -5 -118 7 0
8 -7 102 -15 209 -8 107 -11 198 -7 202 7 7 76 13 200 16 51 1 80 -3 96 -13z
m416 -129 c101 -62 122 -124 74 -226 -59 -128 -141 -197 -217 -186 -58 9 -147
72 -171 120 -16 33 -17 45 -8 87 12 49 83 169 121 203 27 24 90 45 121 40 14
-3 50 -20 80 -38z m3451 -55 c1 -3 5 -49 9 -101 5 -52 16 -140 24 -194 10 -63
13 -103 7 -109 -5 -5 -27 -10 -48 -11 l-38 -1 -12 85 c-7 47 -14 94 -15 105
-3 17 -6 16 -18 -10 -13 -26 -22 -30 -60 -33 -36 -3 -47 1 -63 20 l-19 23 6
-40 c23 -180 22 -185 -41 -185 -26 0 -34 5 -38 23 -13 59 -47 378 -42 392 4
10 20 15 46 15 38 0 43 -4 82 -57 23 -32 45 -62 50 -67 7 -8 25 25 62 116 13
30 21 37 49 40 36 4 57 0 59 -11z m-2821 -512 c-12 -233 -46 -607 -64 -716
l-14 -78 -1 71 c-1 83 30 469 59 724 11 96 20 181 20 189 0 8 2 12 5 9 3 -3 1
-93 -5 -199z m-279 -101 c-12 -177 -35 -410 -51 -508 -7 -41 -8 -23 -4 75 8
195 51 622 61 611 3 -2 0 -82 -6 -178z m2386 75 c-3 -10 -5 -2 -5 17 0 19 2
27 5 18 2 -10 2 -26 0 -35z m-1042 -17 c22 -10 33 -20 30 -29 -4 -8 4 -18 19
-25 21 -9 25 -20 31 -78 13 -120 -11 -291 -50 -350 -40 -61 -121 -50 -151 21
-13 33 -13 42 6 101 23 75 25 133 9 231 -13 78 -3 118 33 133 31 12 34 12 73
-4z m-180 -18 c18 -8 22 -14 13 -19 -8 -5 -5 -13 13 -27 23 -19 24 -27 27
-135 3 -99 1 -122 -16 -161 -23 -50 -50 -64 -95 -47 -27 11 -45 36 -33 48 3 3
14 0 23 -8 15 -11 16 -11 6 0 -9 11 -7 21 13 50 44 65 26 128 -46 160 l-37 16
12 50 c19 75 61 100 120 73z m1190 -408 c-15 -173 -33 -358 -40 -410 l-13 -95
-1 80 c-1 95 22 391 49 635 11 96 21 184 22 195 1 11 3 -5 5 -35 3 -30 -8
-196 -22 -370z m-763 339 c23 -21 26 -27 11 -20 -37 19 -38 12 -2 -14 41 -31
47 -48 48 -141 1 -90 -12 -163 -43 -230 -37 -81 -108 -108 -162 -61 -30 26
-34 69 -14 137 6 19 13 89 16 155 6 145 9 160 34 185 30 30 74 25 112 -11z
m1044 -161 c-13 -239 -53 -625 -63 -615 -12 13 51 737 65 737 3 0 2 -55 -2
-122z m-1666 86 c108 -20 140 -40 140 -89 0 -65 -73 -115 -194 -131 l-46 -7
45 -28 c47 -30 60 -56 53 -113 l-4 -33 51 23 c62 30 132 31 184 4 43 -22 89
-71 96 -103 2 -12 6 -31 8 -42 3 -12 5 -8 6 11 2 47 18 55 113 53 90 -2 103 2
167 56 50 41 75 44 109 13 l25 -23 -12 22 c-6 12 -19 27 -29 32 -14 8 -15 10
-2 15 14 5 77 14 130 19 l25 2 0 -105 c-1 -168 -45 -256 -138 -279 -41 -10
-41 -10 16 -6 31 2 57 2 57 0 0 -9 -46 -28 -89 -36 l-46 -8 55 3 c30 2 63 7
73 11 18 7 18 5 -2 -32 -36 -72 -68 -101 -134 -123 l-62 -20 48 3 48 2 -6 -35
c-5 -34 -24 -222 -25 -248 0 -9 -5 -10 -19 -2 -11 5 -82 10 -158 10 -112 0
-145 -3 -173 -17 -23 -12 -52 -17 -85 -15 -46 3 -51 6 -67 38 -10 19 -18 45
-19 57 0 21 -1 21 -9 2 -9 -22 -15 -12 -23 35 -4 24 -4 24 -6 -2 -1 -32 1 -31
-38 -17 l-31 10 5 127 c3 70 9 131 14 136 4 5 36 12 71 16 35 4 56 8 47 9 -10
0 -58 22 -109 47 -147 74 -256 194 -318 352 -23 59 -26 82 -26 187 -1 77 3
127 11 140 12 19 12 19 13 -5 3 -55 15 -56 15 -1 0 61 12 86 50 102 23 10 68
6 195 -17z m830 -9 c35 -18 39 -29 8 -19 -18 5 -14 -1 15 -26 34 -30 37 -37
37 -84 0 -60 -36 -145 -71 -170 -32 -22 -71 -20 -102 4 l-26 21 6 122 c6 143
16 167 69 167 19 0 48 -7 64 -15z m-2110 -260 c0 -23 -2 -24 -20 -15 -25 13
-26 27 -2 33 9 3 18 5 20 6 1 0 2 -10 2 -24z m2320 -132 c25 -9 46 -17 48 -19
2 -1 -7 -113 -19 -249 -21 -246 -21 -247 -2 -274 26 -35 85 -54 152 -48 70 5
101 37 101 102 l0 43 28 -28 c50 -49 196 -54 226 -7 8 12 18 50 22 85 l7 62
43 -57 c24 -32 53 -70 64 -85 l22 -28 -74 0 c-182 0 -275 -74 -247 -199 5 -25
12 -54 15 -63 5 -17 -5 -18 -119 -18 -111 0 -129 -2 -168 -23 l-44 -24 -28 21
c-26 19 -45 21 -183 24 l-154 3 0 67 c1 118 16 185 64 284 52 106 86 212 112
351 l18 97 35 0 c20 0 56 -8 81 -17z m-1813 -225 c-3 -8 -6 -5 -6 6 -1 11 2
17 5 13 3 -3 4 -12 1 -19z m2100 -190 c-3 -8 -6 -5 -6 6 -1 11 2 17 5 13 3 -3
4 -12 1 -19z m-1310 -255 c-2 -16 -4 -5 -4 22 0 28 2 40 4 28 2 -13 2 -35 0
-50z m682 -105 c1 -16 -3 -28 -9 -28 -5 0 -10 21 -9 48 0 35 3 42 9 27 5 -11
9 -32 9 -47z m-654 -53 c18 -18 25 -35 25 -65 l0 -40 94 0 c124 0 126 -2 126
-126 0 -108 -9 -134 -46 -134 -24 0 -25 -2 -17 -32 4 -18 8 -199 8 -403 l0
-370 -28 -57 c-30 -62 -89 -121 -146 -146 -53 -24 -240 -23 -303 1 -64 25
-129 98 -154 174 -17 53 -19 91 -19 408 0 193 4 367 9 388 7 32 6 37 -10 37
-9 0 -26 7 -36 17 -15 13 -18 32 -18 107 0 131 5 136 126 136 l94 0 0 43 c0
44 13 70 40 80 8 3 64 6 123 6 102 1 109 0 132 -24z m2470 -79 c14 -20 15
-101 13 -679 -2 -521 -6 -659 -16 -669 -9 -9 -53 -14 -140 -16 -116 -3 -130
-2 -152 16 l-25 20 -3 396 -3 396 -69 0 c-96 0 -102 11 -98 159 l3 111 -204
-2 -205 -3 -7 -28 c-7 -24 -5 -28 9 -22 9 4 42 9 73 12 161 16 302 -99 349
-283 22 -84 26 -174 10 -205 -10 -17 -22 -19 -144 -19 -95 0 -136 4 -143 13
-5 6 -17 43 -26 81 -47 193 -178 191 -233 -3 -26 -91 -26 -91 -184 -91 -108 0
-140 3 -150 15 -9 11 2 63 55 261 37 135 69 253 72 260 4 11 -6 14 -44 14 -77
0 -84 14 -81 146 3 104 4 109 28 121 19 10 116 12 428 11 386 -3 404 -4 418
-22 10 -14 14 -49 14 -120 l0 -101 64 3 64 4 4 107 c2 73 8 113 17 124 11 14
35 17 152 17 134 0 139 -1 154 -24z m-3105 1 l25 -13 3 -382 c1 -253 -1 -390
-8 -402 -10 -19 -22 -20 -160 -20 -143 0 -150 1 -164 22 -13 19 -16 61 -16
260 l0 238 -449 0 -450 0 -15 22 c-12 17 -16 49 -16 134 0 170 -68 154 639
154 452 0 592 -3 611 -13z m1216 -11 c11 -16 14 -63 14 -218 l0 -198 40 0 40
0 0 204 c0 177 2 205 17 217 12 10 50 14 140 14 112 0 126 -2 139 -19 12 -17
14 -124 14 -672 0 -593 -1 -653 -17 -665 -26 -22 -237 -26 -268 -5 l-25 16 -2
298 -3 297 -37 3 -38 3 0 -290 c0 -250 -2 -292 -16 -305 -12 -13 -40 -16 -144
-16 -118 0 -130 2 -140 19 -7 14 -9 233 -8 668 l3 647 25 14 c17 9 60 12 138
10 99 -3 115 -5 128 -22z m1482 -892 c21 -14 22 -23 22 -128 0 -74 -4 -116
-12 -124 -8 -8 -62 -12 -179 -12 l-167 0 -3 -85 c-3 -51 -9 -89 -17 -97 -9 -9
-49 -13 -138 -13 -153 0 -154 1 -154 117 l0 78 -153 0 c-106 0 -157 4 -165 12
-8 8 -12 50 -12 124 0 105 1 114 22 128 20 14 82 16 478 16 396 0 458 -2 478
-16z m-2624 -26 c22 -32 22 -204 0 -236 -15 -22 -18 -22 -260 -22 l-244 0 0
-68 c0 -105 -1 -106 -169 -110 -139 -3 -141 -3 -166 22 -22 22 -25 34 -25 91
l0 65 -239 0 c-204 0 -242 2 -255 16 -23 23 -23 225 0 248 14 14 89 16 679 16
l664 0 15 -22z m2000 -544 c9 -3 16 -17 16 -30 0 -24 -1 -24 -105 -24 -103 0
-105 0 -105 23 0 13 3 27 7 30 8 9 166 9 187 1z m-2134 -22 c0 -19 -27 -32
-67 -32 -41 0 -56 14 -36 33 9 10 103 9 103 -1z m1030 -41 c0 -6 -10 -17 -22
-25 -27 -19 -48 -5 -28 19 14 16 50 21 50 6z m-616 -33 c9 -12 16 -35 16 -50
l0 -28 233 0 c168 0 236 -3 245 -12 16 -16 16 -180 0 -196 -7 -7 -22 -12 -33
-12 -20 0 -22 -5 -22 -57 0 -61 -24 -123 -59 -154 -56 -49 -193 -88 -311 -89
-46 0 -53 -3 -53 -20 0 -19 7 -20 240 -20 291 0 280 5 280 -120 0 -132 73
-120 -697 -120 -597 0 -658 2 -675 17 -25 22 -27 183 -2 207 13 14 51 16 260
16 228 0 245 1 242 18 -3 14 -19 18 -88 24 -239 20 -340 92 -340 243 0 45 -3
55 -17 55 -39 0 -53 29 -53 109 0 42 5 83 10 91 8 12 50 16 247 20 l238 5 6
39 c3 21 12 42 20 47 8 5 78 9 156 9 135 0 143 -1 157 -22z m1887 -95 c10 -11
14 -46 14 -115 0 -150 43 -138 -481 -138 l-434 0 0 -25 0 -25 424 0 c373 0
426 -2 440 -16 21 -21 23 -206 3 -223 -10 -7 -145 -12 -438 -13 l-424 -3 -3
-22 -3 -22 451 -3 c434 -3 452 -4 466 -22 10 -14 14 -49 14 -121 0 -87 -3
-104 -19 -119 -17 -15 -62 -17 -547 -14 -515 3 -530 4 -574 24 -54 26 -93 65
-117 119 -15 35 -18 80 -21 373 -3 293 -2 336 12 358 l16 24 604 0 c549 0 605
-1 617 -17z m-1442 -839 c22 -16 23 -18 19 -203 -3 -206 -10 -229 -72 -267
-29 -18 -62 -19 -521 -22 -543 -4 -577 -1 -620 49 -37 44 -40 66 -40 257 0
160 1 175 19 188 17 12 115 14 606 14 522 0 588 -2 609 -16z m1511 -234 c17
-17 20 -33 20 -118 0 -72 -4 -103 -16 -120 l-15 -22 -664 0 c-590 0 -665 2
-679 16 -13 12 -16 39 -16 124 0 85 3 112 16 124 14 14 89 16 675 16 646 0
659 0 679 -20z"/>
<path d="M5176 5724 c-12 -32 -5 -41 44 -52 59 -14 80 -8 80 24 0 18 -8 25
-37 33 -53 15 -80 14 -87 -5z"/>
<path d="M5145 5578 c-3 -8 -7 -27 -8 -43 -2 -27 1 -29 55 -40 66 -14 78 -7
78 41 0 35 -6 39 -74 49 -35 6 -47 4 -51 -7z"/>
<path d="M938 5723 c-23 -4 -28 -9 -28 -34 0 -28 1 -29 54 -29 60 0 88 19 69
48 -10 17 -46 23 -95 15z"/>
<path d="M920 5525 l0 -45 59 0 c68 0 84 12 75 59 -6 31 -7 31 -70 31 l-64 0
0 -45z"/>
<path d="M1388 5590 c-31 -24 -83 -105 -92 -143 -5 -21 -1 -33 18 -52 49 -49
92 -29 151 69 42 71 44 98 9 125 -33 26 -54 26 -86 1z"/>
<path d="M3115 4716 c-28 -42 -30 -91 -6 -115 11 -11 26 -21 32 -21 5 0 -2 10
-16 23 -24 20 -26 27 -20 61 4 21 16 47 26 57 11 11 15 19 9 19 -5 0 -17 -11
-25 -24z"/>
<path d="M3200 4590 c-9 -6 -10 -10 -3 -10 6 0 15 5 18 10 8 12 4 12 -15 0z"/>
<path d="M3010 5030 c-9 -6 -10 -10 -3 -10 6 0 15 5 18 10 8 12 4 12 -15 0z"/>
<path d="M2988 4683 c6 -2 18 -2 25 0 6 3 1 5 -13 5 -14 0 -19 -2 -12 -5z"/>
<path d="M3314 4645 c-29 -70 -10 -109 57 -120 l34 -6 -39 15 c-57 22 -66 43
-45 104 6 17 18 33 27 35 15 4 15 5 -1 6 -12 1 -23 -11 -33 -34z"/>
<path d="M2740 4857 c-2 -52 110 -99 159 -68 10 6 0 8 -27 4 -52 -7 -98 11
-117 46 -8 14 -14 22 -15 18z"/>
<path d="M3418 4373 c10 -16 22 -35 25 -43 4 -10 6 -11 6 -2 1 19 -28 72 -40
72 -6 0 -2 -12 9 -27z"/>
<path d="M3320 4383 c0 -5 5 -14 11 -20 7 -7 18 -33 25 -60 10 -37 13 -42 13
-20 1 16 -6 44 -15 63 -16 34 -34 53 -34 37z"/>
<path d="M3555 4739 c-11 -16 -1 -19 13 -3 7 8 8 14 3 14 -5 0 -13 -5 -16 -11z"/>
<path d="M3536 4684 c-9 -35 15 -71 54 -79 17 -4 34 -4 37 -1 4 3 -3 6 -14 6
-11 0 -32 9 -46 20 -21 17 -25 27 -20 50 7 37 -2 40 -11 4z"/>
<path d="M2725 3294 c-13 -13 -15 -64 -15 -359 0 -189 3 -350 6 -359 3 -9 17
-16 30 -16 17 0 26 7 31 28 10 35 10 648 1 683 -10 33 -33 43 -53 23z"/>
<path d="M2189 1710 l-24 -20 24 -20 c22 -19 38 -20 236 -20 225 0 265 6 265
40 0 34 -40 40 -265 40 -198 0 -214 -1 -236 -20z"/>
<path d="M2150 855 l0 -25 280 0 280 0 0 25 0 25 -280 0 -280 0 0 -25z"/>
<path d="M4533 5847 c-29 -23 -82 -64 -119 -92 -36 -27 -72 -55 -79 -62 -7 -6
-28 -22 -46 -35 -19 -13 -52 -36 -74 -53 -22 -16 -42 -30 -44 -32 -2 -2 -2 -6
2 -9 3 -4 23 7 44 23 21 17 61 43 88 59 28 16 93 61 145 99 52 39 114 82 138
95 45 26 51 34 26 44 -24 9 -25 9 -81 -37z"/>
<path d="M5189 4776 c-2 -3 -78 -16 -168 -30 -90 -14 -167 -28 -169 -31 -7 -7
-4 -7 143 11 72 8 156 18 187 21 42 4 55 9 51 19 -5 13 -34 19 -44 10z"/>
<path d="M1486 4414 c-4 -9 -9 -14 -12 -11 -5 4 -183 -102 -244 -146 -35 -25
-163 -106 -174 -110 -16 -6 6 -29 23 -24 9 2 81 51 161 108 80 57 165 117 190
134 77 51 94 65 77 65 -8 0 -18 -7 -21 -16z"/>
</g>
</svg>
